<!DOCTYPE svg PUBLIC "-//W3C//DTD SVG 1.1//EN" "http://www.w3.org/Graphics/SVG/1.1/DTD/svg11.dtd">
<!-- Uploaded to: SVG Repo, www.svgrepo.com, Transformed by: SVG Repo Mixer Tools -->
<svg width="800px" height="800px" viewBox="0 0 1024 1024" fill="#252c36" class="icon" version="1.1" xmlns="http://www.w3.org/2000/svg">
<g id="SVGRepo_bgCarrier" stroke-width="0"/>
<g id="SVGRepo_tracerCarrier" stroke-linecap="round" stroke-linejoin="round"/>
<g id="SVGRepo_iconCarrier">
<path d="M532.204 376.52h-0.016a7.994 7.994 0 0 1-5.65-2.36l-11.586-11.638c-27.356 1.522-53.776-8.666-73.106-28.114-37.332-37.48-37.208-98.336 0.282-135.668 18.098-18.02 42.142-27.95 67.688-27.95 25.7 0 49.838 10.024 67.966 28.22a95.74 95.74 0 0 1 27.792 73.254l11.602 11.638a8.008 8.008 0 0 1 2.344 5.66 7.942 7.942 0 0 1-2.36 5.652l-79.318 78.974a7.99 7.99 0 0 1-5.638 2.332z m-14.178-30.228c2.124 0 4.154 0.842 5.668 2.358l8.542 8.572 67.982-67.688-8.554-8.578a8.038 8.038 0 0 1-2.312-6.426c2.344-23.842-6.012-47.256-22.904-64.236-15.1-15.16-35.208-23.514-56.63-23.514-21.284 0-41.314 8.276-56.414 23.294-31.226 31.104-31.336 81.818-0.218 113.052 16.864 16.958 40.3 25.404 64.096 23.196a7.66 7.66 0 0 1 0.744-0.03z" fill=""/>
<path d="M554.844 353.958h-0.016a8.004 8.004 0 0 1-5.652-2.358l-22.546-22.672a7.98 7.98 0 0 1-2.17-7.22l5.714-28.246a8.018 8.018 0 0 1 6.292-6.262l28.292-5.59a8.068 8.068 0 0 1 7.212 2.208l22.544 22.656a7.986 7.986 0 0 1-0.032 11.304l-34.006 33.852a7.976 7.976 0 0 1-5.632 2.328z m-13.866-33.274l13.896 13.974 22.672-22.57-13.896-13.958-18.862 3.724-3.81 18.83zM509.752 308.628a7.974 7.974 0 0 1-5.668-2.35l-22.578-22.654a7.988 7.988 0 0 1 0.032-11.304 7.988 7.988 0 0 1 11.304 0.016l22.578 22.654a7.992 7.992 0 0 1-0.032 11.304 7.92 7.92 0 0 1-5.636 2.334zM543.726 274.81a7.966 7.966 0 0 1-5.668-2.358l-22.544-22.688a8.004 8.004 0 0 1 0.032-11.304 8 8 0 0 1 11.302 0.032l22.546 22.688a8.004 8.004 0 0 1-0.032 11.304 7.97 7.97 0 0 1-5.636 2.326z" fill=""/>
<path d="M599.998 399.284h-0.016l-22.638-0.046a7.996 7.996 0 0 1-5.652-2.358l-33.82-34.006a7.988 7.988 0 0 1 0.032-11.304l56.646-56.398a8.006 8.006 0 0 1 5.636-2.326h0.016a8.004 8.004 0 0 1 5.652 2.358l33.82 33.992A7.964 7.964 0 0 1 642 334.84l-0.032 22.594a7.926 7.926 0 0 1-2.358 5.65l-33.976 33.868a7.966 7.966 0 0 1-5.636 2.332z m-19.312-16.028l16.02 0.032 29.276-29.19 0.032-15.972-25.858-25.982-45.31 45.124 25.84 25.988z" fill=""/>
<path d="M554.75 399.174a7.986 7.986 0 0 1-5.668-2.358 7.988 7.988 0 0 1 0.032-11.304l79.318-78.944a7.988 7.988 0 0 1 11.304 0.032 7.988 7.988 0 0 1-0.032 11.304l-79.318 78.944a7.946 7.946 0 0 1-5.636 2.326zM475.854 313.252a23.764 23.764 0 0 1-17.004-7.098 23.71 23.71 0 0 1-6.978-16.934 23.81 23.81 0 0 1 7.056-16.94c9.072-9.048 24.874-9.018 33.898 0.054a23.724 23.724 0 0 1 7.01 16.956 23.83 23.83 0 0 1-7.056 16.964 23.852 23.852 0 0 1-16.926 6.998z m0-31.978a7.948 7.948 0 0 0-5.652 2.344 7.852 7.852 0 0 0-2.342 5.626 7.92 7.92 0 0 0 2.31 5.636c3.044 3.052 8.292 3.06 11.336 0.04a7.878 7.878 0 0 0 2.342-5.644 7.94 7.94 0 0 0-2.326-5.642 7.94 7.94 0 0 0-5.668-2.36zM532.484 256.838a23.72 23.72 0 0 1-16.986-7.088c-9.306-9.322-9.292-24.538 0.062-33.882 9.132-9.094 24.95-9 33.944 0.11a23.752 23.752 0 0 1 6.978 16.934 23.878 23.878 0 0 1-7.042 16.934 23.918 23.918 0 0 1-16.956 6.992z m0-31.976a7.94 7.94 0 0 0-5.636 2.334 8 8 0 0 0-0.016 11.29c3.06 3.06 8.276 3.038 11.336 0.024a7.948 7.948 0 0 0 2.326-5.628 7.932 7.932 0 0 0-2.326-5.628 7.932 7.932 0 0 0-5.684-2.392zM509.784 286.022a8.016 8.016 0 0 1-5.668-2.35 8 8 0 0 1 0.032-11.312l11.336-11.29a8 8 0 0 1 11.302 0.024 8 8 0 0 1-0.032 11.312l-11.334 11.29a7.958 7.958 0 0 1-5.636 2.326zM622.67 387.978a7.968 7.968 0 0 1-5.652-2.342l-5.652-5.652a7.992 7.992 0 1 1 11.304-11.304l5.652 5.652a7.988 7.988 0 0 1 0 11.304 7.954 7.954 0 0 1-5.652 2.342zM855.754 1023.634H168.244c-39.674 0-71.948-32.274-71.948-71.95V519.994A7.988 7.988 0 0 1 104.29 512h815.418a7.99 7.99 0 0 1 7.994 7.994v431.692c0.002 39.676-32.274 71.948-71.948 71.948zM112.286 527.988v423.698c0 30.854 25.108 55.96 55.958 55.96h687.51c30.854 0 55.958-25.108 55.958-55.96V527.988H112.286z" fill=""/>
<path d="M136.268 575.954a7.988 7.988 0 0 1-7.994-7.992v-15.99a7.99 7.99 0 0 1 7.994-7.994 7.988 7.988 0 0 1 7.994 7.994v15.99a7.988 7.988 0 0 1-7.994 7.992zM810.708 991.658h-31.462a7.99 7.99 0 0 1-7.994-7.994 7.99 7.99 0 0 1 7.994-7.996h31.462a7.988 7.988 0 0 1 7.992 7.996 7.988 7.988 0 0 1-7.992 7.994z m-62.924 0h-31.446a7.99 7.99 0 0 1-7.994-7.994 7.99 7.99 0 0 1 7.994-7.996h31.446a7.99 7.99 0 0 1 7.996 7.996 7.99 7.99 0 0 1-7.996 7.994z m-62.908 0h-31.462a7.99 7.99 0 0 1-7.994-7.994 7.99 7.99 0 0 1 7.994-7.996h31.462a7.988 7.988 0 0 1 7.992 7.996 7.988 7.988 0 0 1-7.992 7.994z m-62.91 0h-31.46a7.99 7.99 0 0 1-7.994-7.994 7.99 7.99 0 0 1 7.994-7.996h31.46a7.99 7.99 0 0 1 7.996 7.996 7.99 7.99 0 0 1-7.996 7.994z m-62.922 0h-31.448a7.988 7.988 0 0 1-7.994-7.994 7.99 7.99 0 0 1 7.994-7.996h31.448a7.988 7.988 0 0 1 7.992 7.996 7.988 7.988 0 0 1-7.992 7.994z m-62.908 0h-31.462a7.99 7.99 0 0 1-7.994-7.994 7.99 7.99 0 0 1 7.994-7.996h31.462a7.99 7.99 0 0 1 7.994 7.996 7.99 7.99 0 0 1-7.994 7.994z m-62.908 0h-31.462a7.99 7.99 0 0 1-7.994-7.994 7.99 7.99 0 0 1 7.994-7.996h31.462a7.99 7.99 0 0 1 7.994 7.996 7.99 7.99 0 0 1-7.994 7.994z m-62.924 0h-31.448a7.99 7.99 0 0 1-7.994-7.994 7.99 7.99 0 0 1 7.994-7.996h31.448a7.99 7.99 0 0 1 7.994 7.996 7.99 7.99 0 0 1-7.994 7.994z m-62.908 0h-31.462a7.99 7.99 0 0 1-7.994-7.994 7.99 7.99 0 0 1 7.994-7.996h31.462a7.99 7.99 0 0 1 7.994 7.996 7.99 7.99 0 0 1-7.994 7.994z m-62.908 0h-31.462a7.99 7.99 0 0 1-7.994-7.994 7.99 7.99 0 0 1 7.994-7.996h31.462a7.99 7.99 0 0 1 7.994 7.996 7.99 7.99 0 0 1-7.994 7.994z m597.666-0.062c-4.23 0-7.776-3.326-7.978-7.588a7.974 7.974 0 0 1 7.572-8.386 39.486 39.486 0 0 0 23.89-9.54 8.016 8.016 0 0 1 11.272 0.876 7.992 7.992 0 0 1-0.874 11.274c-9.354 7.994-21.234 12.74-33.476 13.35-0.14 0.014-0.28 0.014-0.406 0.014z m-660.606-0.016c-0.14 0-0.282 0-0.438-0.016-12.226-0.656-24.076-5.464-33.398-13.538a7.988 7.988 0 0 1-0.812-11.274 7.988 7.988 0 0 1 11.274-0.812c6.746 5.84 14.99 9.182 23.81 9.664a7.986 7.986 0 0 1 7.542 8.418 7.994 7.994 0 0 1-7.978 7.558z m705.168-37.958c-0.562 0-1.124-0.062-1.688-0.172a8.006 8.006 0 0 1-6.152-9.492c0.578-2.716 0.876-5.48 0.86-8.228V914.26a7.99 7.99 0 0 1 7.996-7.994 7.988 7.988 0 0 1 7.992 7.994v21.438a55.108 55.108 0 0 1-1.202 11.602 8.012 8.012 0 0 1-7.806 6.322z m-749.48-0.248a8 8 0 0 1-7.822-6.402 57.13 57.13 0 0 1-1.14-11.274v-21.704A7.99 7.99 0 0 1 136.268 906a7.988 7.988 0 0 1 7.994 7.994v21.704c0 2.764 0.282 5.464 0.828 8.088a8.012 8.012 0 0 1-6.246 9.432 8.114 8.114 0 0 1-1.608 0.156z m750.496-62.582a7.99 7.99 0 0 1-7.996-7.996v-31.446a7.99 7.99 0 0 1 7.996-7.994 7.988 7.988 0 0 1 7.992 7.994v31.446a7.988 7.988 0 0 1-7.992 7.996z m-751.464-0.264a7.99 7.99 0 0 1-7.994-7.996v-31.46a7.99 7.99 0 0 1 7.994-7.994 7.988 7.988 0 0 1 7.994 7.994v31.46a7.99 7.99 0 0 1-7.994 7.996z m751.464-62.646a7.988 7.988 0 0 1-7.996-7.992v-31.462a7.99 7.99 0 0 1 7.996-7.994 7.988 7.988 0 0 1 7.992 7.994v31.462a7.986 7.986 0 0 1-7.992 7.992z m-751.464-0.264a7.988 7.988 0 0 1-7.994-7.992v-31.462a7.99 7.99 0 0 1 7.994-7.994 7.988 7.988 0 0 1 7.994 7.994v31.462a7.988 7.988 0 0 1-7.994 7.992z m751.464-62.642a7.99 7.99 0 0 1-7.996-7.996v-31.46a7.99 7.99 0 0 1 7.996-7.994 7.988 7.988 0 0 1 7.992 7.994v31.46a7.988 7.988 0 0 1-7.992 7.996z m-751.464-0.28a7.99 7.99 0 0 1-7.994-7.996v-31.446a7.99 7.99 0 0 1 7.994-7.994 7.988 7.988 0 0 1 7.994 7.994v31.446a7.99 7.99 0 0 1-7.994 7.996z m751.464-62.646a7.988 7.988 0 0 1-7.996-7.992v-31.448a7.99 7.99 0 0 1 7.996-7.994 7.988 7.988 0 0 1 7.992 7.994v31.448a7.986 7.986 0 0 1-7.992 7.992z m-751.464-0.264a7.988 7.988 0 0 1-7.994-7.992v-31.462a7.988 7.988 0 0 1 7.994-7.994 7.988 7.988 0 0 1 7.994 7.994v31.462a7.988 7.988 0 0 1-7.994 7.992z m751.464-62.642a7.99 7.99 0 0 1-7.996-7.996v-31.46a7.99 7.99 0 0 1 7.996-7.994 7.988 7.988 0 0 1 7.992 7.994v31.46a7.988 7.988 0 0 1-7.992 7.996z m-751.464-0.266a7.99 7.99 0 0 1-7.994-7.996v-31.46a7.99 7.99 0 0 1 7.994-7.994 7.988 7.988 0 0 1 7.994 7.994v31.46a7.99 7.99 0 0 1-7.994 7.996zM887.732 575.954a7.988 7.988 0 0 1-7.996-7.992v-15.99a7.99 7.99 0 0 1 7.996-7.994 7.988 7.988 0 0 1 7.992 7.994v15.99a7.988 7.988 0 0 1-7.992 7.992zM104.292 448.044a7.988 7.988 0 0 1-7.994-7.994v-175.874c0-4.834 2.842-48.162 101.38-81.264 4.2-1.38 8.712 0.852 10.118 5.036a7.996 7.996 0 0 1-5.028 10.126c-89.452 30.042-90.482 65.742-90.482 66.102v175.874a7.99 7.99 0 0 1-7.994 7.994zM919.708 448.044a7.99 7.99 0 0 1-7.996-7.994v-175.874c0-26.662-25.074-48.834-74.524-65.89a8 8 0 0 1-4.95-10.166c1.436-4.168 6.028-6.362 10.164-4.95 56.6 19.526 85.298 46.78 85.298 81.006v175.874a7.984 7.984 0 0 1-7.992 7.994zM567.958 799.794h-111.92a7.99 7.99 0 0 1-7.994-7.994v-111.922a7.988 7.988 0 0 1 7.994-7.992h111.92a7.988 7.988 0 0 1 7.994 7.992V791.8a7.988 7.988 0 0 1-7.994 7.994z m-103.924-15.99h95.932v-95.93h-95.932v95.93z" fill=""/>
<path d="M512 751.828c-13.224 0-23.982-10.758-23.982-23.982s10.758-23.982 23.982-23.982 23.982 10.758 23.982 23.982-10.758 23.982-23.982 23.982z m0-31.976a8.01 8.01 0 0 0-7.994 7.994A8.008 8.008 0 0 0 512 735.84a8.01 8.01 0 0 0 7.994-7.994 8.01 8.01 0 0 0-7.994-7.994z" fill=""/>
<path d="M512 767.816a7.988 7.988 0 0 1-7.994-7.994v-15.988A7.988 7.988 0 0 1 512 735.84a7.99 7.99 0 0 1 7.994 7.994v15.988a7.988 7.988 0 0 1-7.994 7.994zM296.154 496.012a7.988 7.988 0 0 1-7.994-7.994V8.36a7.988 7.988 0 0 1 7.994-7.994 7.99 7.99 0 0 1 7.994 7.994v479.658a7.99 7.99 0 0 1-7.994 7.994z" fill=""/>
<path d="M711.858 16.354H296.154a7.988 7.988 0 0 1-7.994-7.994 7.988 7.988 0 0 1 7.994-7.994h415.704a7.99 7.99 0 0 1 7.994 7.994 7.988 7.988 0 0 1-7.994 7.994zM791.798 496.012a7.99 7.99 0 0 1-7.994-7.994V88.302a7.99 7.99 0 0 1 7.994-7.994 7.99 7.99 0 0 1 7.996 7.994v399.714a7.99 7.99 0 0 1-7.996 7.996z" fill=""/>
<path d="M791.798 96.296a7.978 7.978 0 0 1-5.652-2.342l-79.94-79.942a7.988 7.988 0 0 1 0-11.304 7.988 7.988 0 0 1 11.304 0l79.942 79.944a7.988 7.988 0 0 1-5.654 13.644z" fill=""/>
<path d="M759.822 112.286h-63.954c-4.42 0-7.996-3.576-7.996-7.994s3.576-7.994 7.996-7.994h63.954c4.418 0 7.994 3.576 7.994 7.994s-3.576 7.994-7.994 7.994z" fill=""/>
<path d="M695.87 112.286a7.99 7.99 0 0 1-7.996-7.994V40.336a7.99 7.99 0 0 1 7.996-7.994 7.988 7.988 0 0 1 7.992 7.994v63.956a7.99 7.99 0 0 1-7.992 7.994z" fill=""/>
<path d="M280.166 48.332h-15.99a7.99 7.99 0 0 1-7.994-7.996 7.99 7.99 0 0 1 7.994-7.994h15.99a7.99 7.99 0 0 1 7.994 7.994 7.99 7.99 0 0 1-7.994 7.996z" fill=""/>
<path d="M264.176 496.012a7.99 7.99 0 0 1-7.994-7.994V40.336a7.99 7.99 0 0 1 7.994-7.994 7.988 7.988 0 0 1 7.994 7.994v447.682a7.988 7.988 0 0 1-7.994 7.994z" fill=""/>
<path d="M248.188 80.308H232.2a7.99 7.99 0 0 1-7.994-7.994 7.988 7.988 0 0 1 7.994-7.994h15.988a7.988 7.988 0 0 1 7.994 7.994 7.988 7.988 0 0 1-7.994 7.994z" fill=""/>
<path d="M232.2 496.012a7.99 7.99 0 0 1-7.994-7.994V72.314c0-4.42 3.576-7.994 7.994-7.994s7.994 3.574 7.994 7.994v415.704a7.99 7.99 0 0 1-7.994 7.994z" fill=""/>
<path d="M104.292 527.988a7.988 7.988 0 0 1-7.994-7.994v-47.964a7.988 7.988 0 0 1 7.994-7.994 7.988 7.988 0 0 1 7.994 7.994v47.964a7.99 7.99 0 0 1-7.994 7.994z" fill=""/>
<path d="M919.708 527.988a7.99 7.99 0 0 1-7.996-7.994v-47.964a7.99 7.99 0 0 1 7.996-7.994 7.988 7.988 0 0 1 7.994 7.994v47.964a7.988 7.988 0 0 1-7.994 7.994z" fill=""/>
<path d="M200.222 480.024H104.292a7.988 7.988 0 0 1-7.994-7.994 7.988 7.988 0 0 1 7.994-7.994h95.932a7.994 7.994 0 1 1-0.002 15.988z" fill=""/>
<path d="M919.708 480.024h-95.932a7.988 7.988 0 0 1-7.994-7.994 7.988 7.988 0 0 1 7.994-7.994h95.932a7.988 7.988 0 0 1 7.994 7.994 7.988 7.988 0 0 1-7.994 7.994z" fill=""/>
<path d="M535.982 695.87h-47.964a7.988 7.988 0 0 1-7.994-7.994 7.99 7.99 0 0 1 7.994-7.996h47.964a7.99 7.99 0 0 1 7.994 7.996 7.992 7.992 0 0 1-7.994 7.994z" fill=""/>
</g>
</svg>