<!DOCTYPE svg PUBLIC "-//W3C//DTD SVG 1.1//EN" "http://www.w3.org/Graphics/SVG/1.1/DTD/svg11.dtd">
<!-- Uploaded to: SVG Repo, www.svgrepo.com, Transformed by: SVG Repo Mixer Tools -->
<svg fill="#252c36" height="800px" width="800px" version="1.1" id="Capa_1" xmlns="http://www.w3.org/2000/svg" xmlns:xlink="http://www.w3.org/1999/xlink" viewBox="0 0 494.062 494.062" xml:space="preserve" stroke="#252c36">
<g id="SVGRepo_bgCarrier" stroke-width="0"/>
<g id="SVGRepo_tracerCarrier" stroke-linecap="round" stroke-linejoin="round"/>
<g id="SVGRepo_iconCarrier"> <g> <path d="M181.773,67.205h2.178c-0.521,3.484-0.846,7.143-0.924,10.968c-0.175,8.546-0.566,28.432,21.36,40.203 c9.417,13.744,25.223,22.781,43.105,22.781c17.904,0,33.728-9.059,43.141-22.831c21.57-11.645,21.315-31.433,21.198-39.945 c-0.052-3.791-0.413-7.53-1.064-11.176h2.444c6.321,0,11.463-5.143,11.463-11.464c0-6.321-5.143-11.463-11.463-11.463h-4.08 C300.292,18.105,275.237,0,247.456,0c-28.197,0-52.747,17.719-61.674,44.278h-4.009c-6.321,0-11.463,5.142-11.463,11.463 C170.31,62.062,175.453,67.205,181.773,67.205z M191.526,78.346c0.081-3.927,0.42-7.659,1.009-11.142h12.188 c-2.513,1.485-5.251,2.382-8.202,2.671c-2.336,0.229-4.044,2.309-3.816,4.645c0.157,1.598,1.185,2.894,2.564,3.485v10.927 c0,4.034,0.475,7.957,1.345,11.73C192.089,93.896,191.368,86.08,191.526,78.346z M247.493,132.657 c-24.11,0-43.725-19.615-43.725-43.725V76.944c5.196-1.774,9.841-5.065,13.701-9.739h23.395 c10.642,7.492,27.619,15.95,50.354,16.519v5.209C291.218,113.042,271.603,132.657,247.493,132.657z M303.333,78.497 c0.074,5.445,0.186,13.993-4.878,21.811c0.818-3.664,1.263-7.468,1.263-11.375v-5.59c1.624-0.66,2.74-2.274,2.652-4.124 c-0.112-2.344-2.089-4.157-4.447-4.043c-16.517,0.782-30.017-3.057-40.295-7.971h44.483 C302.863,70.863,303.28,74.645,303.333,78.497z M273.916,15.157c0.196,0.104,0.389,0.214,0.583,0.32v19.475 c0,0.161-0.131,0.292-0.292,0.292c-0.161,0-0.292-0.131-0.292-0.292V15.157z M247.785,8.507v19.767 c0,0.161-0.131,0.292-0.292,0.292c-0.161,0-0.291-0.131-0.291-0.292V8.505c0.085,0,0.169-0.005,0.255-0.005 C247.566,8.5,247.675,8.506,247.785,8.507z M220.486,15.267c0.195-0.105,0.387-0.214,0.583-0.317v20.003 c0,0.161-0.13,0.292-0.291,0.292c-0.161,0-0.292-0.131-0.292-0.292V15.267z M211.986,20.888v14.064 c0,4.848,3.944,8.792,8.792,8.792c4.847,0,8.791-3.944,8.791-8.792v-23.6c2.95-0.971,6.002-1.701,9.132-2.181v19.101 c0,4.848,3.944,8.792,8.791,8.792c4.848,0,8.792-3.944,8.792-8.792V9.211c3.121,0.502,6.175,1.259,9.132,2.262v23.48 c0,4.848,3.944,8.792,8.792,8.792c4.848,0,8.792-3.944,8.792-8.792V21.16c7.476,6.034,13.448,13.945,17.089,23.118H194.816 C198.498,34.903,204.473,26.919,211.986,20.888z M181.773,52.778h131.439c1.634,0,2.963,1.329,2.963,2.963 c0,1.634-1.329,2.964-2.963,2.964H181.773c-1.634,0-2.963-1.33-2.963-2.964C178.81,54.107,180.14,52.778,181.773,52.778z"/> <path d="M248.934,99.816h-5.244c-10.055,0-18.235,8.18-18.235,18.235v5.419c0,2.347,1.903,4.25,4.25,4.25 c2.347,0,4.25-1.903,4.25-4.25v-5.419c0-5.368,4.367-9.735,9.735-9.735h5.244c5.368,0,9.734,4.367,9.734,9.735v5.419 c0,2.347,1.903,4.25,4.25,4.25c2.347,0,4.25-1.903,4.25-4.25v-5.419C267.168,107.997,258.989,99.816,248.934,99.816z"/> <path d="M251.184,115.829h-9.743c-2.347,0-4.25,1.903-4.25,4.25c0,2.347,1.903,4.25,4.25,4.25h9.743c2.347,0,4.25-1.903,4.25-4.25 C255.434,117.731,253.531,115.829,251.184,115.829z"/> <path d="M388.679,231.313l-4.195-4.302c1.132-7.66,2.26-15.301,3.379-22.896c0.214-1.455-0.338-2.917-1.462-3.866 c-1.123-0.949-2.657-1.249-4.056-0.795c-6.563,2.133-13.17,4.087-19.808,5.902c0,0-40.276-39.182-52.858-53.044 c-5.334-5.876-12.697-10.024-21.235-10.024h-23.019c-2.171,0-3.994,1.637-4.226,3.796c-0.637,5.922-6.646,10.561-13.681,10.561 c-7.035,0-13.044-4.639-13.681-10.561c-0.232-2.159-2.054-3.796-4.226-3.796h-23.019c-8.027,0-15.053,3.651-20.298,8.952 c-0.029,0.029-0.065,0.048-0.095,0.078c-13.485,13.491-53.928,53.977-53.928,53.977c-6.562-1.798-13.092-3.733-19.58-5.84 c-1.397-0.453-2.933-0.154-4.056,0.795c-1.123,0.949-1.676,2.411-1.462,3.866c1.114,7.557,2.236,15.158,3.362,22.776l-5.12,5.21 c-9.1,9.101-9.1,23.909,0,33.01c3.212,3.212,7.309,5.398,11.723,6.325c3.013,20.263,6.051,40.616,9.097,60.937 c0.249,1.662,1.454,3.02,3.074,3.467c18.524,5.107,37.344,8.989,56.334,11.656v116.252c0,16.715,13.599,30.314,30.314,30.314 c16.715,0,30.314-13.599,30.314-30.314V354.847h2.495v108.901c0,16.715,13.599,30.314,30.313,30.314 c16.715,0,30.314-13.599,30.314-30.314V347.497c18.99-2.667,37.811-6.55,56.335-11.656c1.62-0.447,2.825-1.806,3.074-3.467 c3.102-20.696,6.193-41.411,9.257-62.016c3.997-1.042,7.626-3.116,10.584-6.072C397.743,255.185,397.743,240.376,388.679,231.313z M340.754,195.538l12.263,12.306c-9.918,2.474-19.906,4.606-29.958,6.373L340.754,195.538z M315.98,209.331v-38.654l18.771,18.837 L315.98,209.331z M226.199,150.788c2.739,8.404,11.27,14.357,21.319,14.357c10.05,0,18.581-5.954,21.319-14.357h19.606 c10.497,0,19.036,8.54,19.036,19.037v46.851c-19.822,2.749-39.844,4.133-59.962,4.133c-20.118,0-40.141-1.384-59.962-4.134v-46.85 c0-10.497,8.54-19.037,19.037-19.037H226.199z M179.056,210.041l-19.633-19.897l19.633-19.651V210.041z M153.414,196.157 l17.673,17.91c-9.827-1.749-19.594-3.855-29.293-6.28L153.414,196.157z M111.426,259.101c-5.787-5.787-5.787-15.203,0.026-21.016 l0.642-0.653c1.214,8.2,2.435,16.431,3.659,24.677C114.163,261.384,112.703,260.378,111.426,259.101z M215.957,485.562 c-12.028,0-21.814-9.786-21.814-21.814v-0.929h29.43c2.347,0,4.25-1.903,4.25-4.25c0-2.347-1.903-4.25-4.25-4.25h-29.43V348.612 c2.386,0.289,4.774,0.556,7.165,0.806v57.316c0,2.347,1.903,4.25,4.25,4.25c2.347,0,4.25-1.903,4.25-4.25V350.23 c9.297,0.791,18.623,1.28,27.963,1.484v112.034C237.77,475.776,227.985,485.562,215.957,485.562z M300.893,439.065h-6.901 c-2.347,0-4.25,1.903-4.25,4.25c0,2.347,1.903,4.25,4.25,4.25h6.901v6.754h-29.321c-2.347,0-4.25,1.903-4.25,4.25 c0,2.347,1.903,4.25,4.25,4.25h29.321v0.929c0,12.028-9.786,21.814-21.814,21.814c-12.028,0-21.814-9.786-21.814-21.814V351.715 c9.894-0.217,19.771-0.763,29.616-1.638v20.677c0,2.347,1.903,4.25,4.25,4.25s4.25-1.903,4.25-4.25v-21.518 c1.838-0.199,3.676-0.402,5.511-0.624V439.065z M247.518,343.335c-38.256,0-76.356-5.034-113.288-14.964 c-4.932-32.916-9.841-65.898-14.651-98.424c18.079,5.427,36.62,9.744,55.207,12.824c0.235,0.039,0.469,0.058,0.7,0.058 c2.041,0,3.843-1.475,4.188-3.556c0.384-2.315-1.183-4.504-3.498-4.888c-19.544-3.239-39.037-7.868-57.973-13.744 c-0.544-3.686-1.089-7.372-1.63-11.043c42.457,13.082,86.474,19.711,130.945,19.711c36.579,0,72.848-4.495,108.197-13.367 l-9.476,69.638c-0.316,2.326,1.313,4.468,3.638,4.785c0.195,0.026,0.388,0.039,0.579,0.039c2.093,0,3.916-1.546,4.206-3.677 l9.95-73.12c4.634-1.265,9.253-2.591,13.852-4.008c-4.785,32.445-9.694,65.51-14.646,98.646 c-20.717,5.622-43.698,10.09-64.917,12.607c-2.331,0.276-3.996,2.39-3.72,4.721c0.256,2.161,2.091,3.75,4.215,3.75 c0.167,0,0.336-0.01,0.506-0.03c20.398-2.418,42.396-6.608,62.546-11.885c-0.547,3.655-1.094,7.31-1.641,10.965 C323.874,338.301,285.774,343.335,247.518,343.335z M382.632,258.274c-0.944,0.943-2,1.737-3.133,2.386 c1.145-7.706,2.285-15.397,3.419-23.059C388.402,243.411,388.316,252.59,382.632,258.274z"/> <path d="M261.271,207.99l13.979,9.725c0.729,0.507,1.578,0.761,2.427,0.761c0.848,0,1.695-0.253,2.424-0.759l14.006-9.725 c1.144-0.795,1.826-2.099,1.826-3.491v-18.233c0-2.347-1.903-4.25-4.25-4.25h-2.044v-16.954c0-2.347-1.903-4.25-4.25-4.25 c-2.347,0-4.25,1.903-4.25,4.25v16.954h-17.44c-2.347,0-4.25,1.903-4.25,4.25v18.233 C259.448,205.893,260.129,207.196,261.271,207.99z M267.948,190.518h19.484v11.76l-9.753,6.772l-9.731-6.769V190.518z"/> <path d="M289.23,321.888c-4.929,0.474-9.932,0.868-14.872,1.172c-2.343,0.145-4.125,2.161-3.981,4.503 c0.139,2.254,2.01,3.989,4.238,3.989c0.088,0,0.176-0.003,0.265-0.008c5.036-0.311,10.137-0.712,15.162-1.195 c2.337-0.225,4.049-2.3,3.824-4.637C293.643,323.376,291.573,321.667,289.23,321.888z"/> <path d="M218.472,239.289c-10.234-0.683-20.572-1.741-30.727-3.145c-2.329-0.323-4.471,1.302-4.793,3.627 c-0.322,2.325,1.303,4.471,3.628,4.793c10.353,1.432,20.893,2.511,31.327,3.207c0.096,0.006,0.192,0.009,0.287,0.009 c2.218,0,4.087-1.722,4.236-3.967C222.586,241.471,220.814,239.445,218.472,239.289z"/> <path d="M169.578,295.517H142.35c-2.347,0-4.25,1.903-4.25,4.25s1.903,4.25,4.25,4.25h27.228c2.347,0,4.25-1.903,4.25-4.25 S171.925,295.517,169.578,295.517z"/> </g> </g>
</svg>