<!DOCTYPE svg PUBLIC "-//W3C//DTD SVG 1.1//EN" "http://www.w3.org/Graphics/SVG/1.1/DTD/svg11.dtd">
<!-- Uploaded to: SVG Repo, www.svgrepo.com, Transformed by: SVG Repo Mixer Tools -->
<svg width="800px" height="800px" viewBox="0 0 1024 1024" fill="#252c36" class="icon" version="1.1" xmlns="http://www.w3.org/2000/svg">
<g id="SVGRepo_bgCarrier" stroke-width="0"/>
<g id="SVGRepo_tracerCarrier" stroke-linecap="round" stroke-linejoin="round"/>
<g id="SVGRepo_iconCarrier">
<path d="M615.922 967.672H408.078a7.982 7.982 0 0 1-5.652-2.344l-31.978-31.976a7.988 7.988 0 0 1-2.342-5.652v-111.92a7.98 7.98 0 0 1 7.994-7.994h271.798a7.968 7.968 0 0 1 7.994 7.994v111.92a7.992 7.992 0 0 1-2.342 5.652l-31.976 31.976a7.99 7.99 0 0 1-5.652 2.344z m-204.534-15.99h201.224l27.292-27.292v-100.616H384.094v100.616l27.294 27.292z" fill=""/>
<path d="M360.112 871.738a7.988 7.988 0 0 1-7.978-7.588c-0.234-4.402 3.154-8.15 7.556-8.4l303.792-15.988c4.466-0.312 8.182 3.154 8.4 7.558 0.218 4.402-3.152 8.18-7.556 8.398l-303.792 15.988c-0.142 0.032-0.282 0.032-0.422 0.032zM360.112 919.706a7.99 7.99 0 0 1-7.978-7.588c-0.234-4.404 3.154-8.15 7.556-8.4l303.792-15.988c4.466-0.438 8.182 3.154 8.4 7.556s-3.152 8.182-7.556 8.4l-303.792 15.988c-0.142 0.032-0.282 0.032-0.422 0.032zM647.898 823.774H376.1a8 8 0 0 1-7.994-7.994v-49.56c-80.192-50.122-127.908-135.872-127.908-230.242 0-149.884 121.928-271.814 271.806-271.814 149.884 0 271.796 121.928 271.796 271.814 0 94.402-47.714 180.122-127.908 230.242v49.558a7.99 7.99 0 0 1-7.994 7.996z m-263.804-15.988h255.81v-46.03c0-2.78 1.468-5.402 3.872-6.84 77.664-46.842 124.038-128.69 124.038-218.938 0-141.062-114.762-255.824-255.808-255.824-141.056 0-255.818 114.762-255.818 255.824 0 90.248 46.374 172.096 124.038 218.938a7.996 7.996 0 0 1 3.872 6.84v46.03zM512.004 999.648c-60.208 0-78.352-34.914-79.1-36.412a7.982 7.982 0 0 1 3.576-10.71c3.952-1.966 8.712-0.406 10.696 3.498 0.624 1.216 15.146 27.636 64.83 27.636 49.768 0 64.226-26.514 64.82-27.636 2.06-3.874 6.838-5.434 10.742-3.436s5.496 6.744 3.53 10.648c-0.752 1.498-18.894 36.412-79.094 36.412zM168.264 543.972H8.364a7.998 7.998 0 0 1-7.994-7.994 7.986 7.986 0 0 1 7.994-8.002h159.9a7.988 7.988 0 0 1 7.996 8.002 8 8 0 0 1-7.996 7.994zM855.75 543.972a7.988 7.988 0 0 1-7.994-7.994 8.01 8.01 0 0 1 7.994-7.994l159.886-0.008a7.996 7.996 0 0 1 0 15.996h-159.886zM75.846 795.792a7.976 7.976 0 0 1-6.916-3.996 7.992 7.992 0 0 1 2.92-10.93l138.496-79.944a7.968 7.968 0 0 1 10.914 2.936 7.956 7.956 0 0 1-2.92 10.898L79.846 794.7a7.806 7.806 0 0 1-4 1.092zM809.72 372.104a7.936 7.936 0 0 1-6.902-3.998 7.996 7.996 0 0 1 2.904-10.922l138.434-79.942a7.986 7.986 0 0 1 10.93 2.928 7.978 7.978 0 0 1-2.936 10.922l-138.434 79.942a7.904 7.904 0 0 1-3.996 1.07zM683.904 246.272a8.09 8.09 0 0 1-3.998-1.07 7.994 7.994 0 0 1-2.904-10.922l79.912-138.448c2.186-3.818 7.088-5.106 10.898-2.928a7.976 7.976 0 0 1 2.936 10.922l-79.912 138.448a8.002 8.002 0 0 1-6.932 3.998zM512.036 200.196a7.99 7.99 0 0 1-7.996-7.994V32.346a7.99 7.99 0 0 1 7.996-7.994 7.99 7.99 0 0 1 7.994 7.994v159.856a7.99 7.99 0 0 1-7.994 7.994zM340.158 246.24a7.956 7.956 0 0 1-6.916-3.998l-79.944-138.432a7.984 7.984 0 0 1 2.92-10.922 7.968 7.968 0 0 1 10.914 2.928l79.944 138.432a7.984 7.984 0 0 1-6.918 11.992zM948.184 795.762a7.886 7.886 0 0 1-3.996-1.092l-138.464-79.944a7.964 7.964 0 0 1-2.904-10.898c2.188-3.842 7.09-5.122 10.898-2.936l138.464 79.944a7.984 7.984 0 0 1 2.936 10.93 8.008 8.008 0 0 1-6.934 3.996zM214.34 372.042a8.008 8.008 0 0 1-3.998-1.07L71.88 291.06a7.986 7.986 0 0 1-2.92-10.922 8.02 8.02 0 0 1 10.914-2.928l138.464 79.912a7.984 7.984 0 0 1 2.92 10.922 7.982 7.982 0 0 1-6.918 3.998z" fill=""/>
<path d="M512.004 623.916c-44.078 0-79.944-35.88-79.944-79.944 0-44.086 35.866-79.95 79.944-79.95 44.084 0 79.936 35.864 79.936 79.95 0 44.064-35.852 79.944-79.936 79.944z m0-143.904c-35.272 0-63.956 28.69-63.956 63.96 0 35.256 28.682 63.956 63.956 63.956 35.28 0 63.946-28.7 63.946-63.956 0-35.27-28.666-63.96-63.946-63.96z" fill=""/>
<path d="M512.004 575.95c-17.628 0-31.978-14.364-31.978-31.976 0-17.634 14.348-31.984 31.978-31.984 17.634 0 31.968 14.35 31.968 31.984 0 17.612-14.334 31.976-31.968 31.976z m0-47.974a15.998 15.998 0 0 0-15.99 15.996c0 8.806 7.166 15.988 15.99 15.988s15.98-7.182 15.98-15.988c0-8.836-7.158-15.996-15.98-15.996z" fill=""/>
<path d="M535.978 727.842H488.02c-13.226 0-23.984-10.774-23.984-23.982v-5.746c-0.032-3.624-10.118-13.834-15.394-16.394-3.794-0.124-8.292 1.716-11.758 5.184l-4.028 4.028c-9.024 9.026-24.888 9.026-33.914 0l-33.914-33.88a23.876 23.876 0 0 1-6.996-16.958c0-6.432 2.482-12.458 6.996-16.958l4.028-4.028c2.56-2.56 2.686-16.894 0.766-22.422-0.546-1.374-5.434-4.746-11.96-4.746h-5.746c-13.224 0-23.982-10.774-23.982-23.982l-0.016-47.974c0-13.224 10.758-23.982 23.982-23.982h5.762c3.544-0.032 13.896-10.236 16.348-15.364 0.546-1.358-0.562-7.19-5.168-11.788l-4.012-4.014c-9.352-9.352-9.352-24.56 0-33.914l33.914-33.928c9.026-9.026 24.888-9.026 33.914 0l4.028 4.028c0.532 0.538 3.748 2.07 11.196 2.07 5.122 0 9.712-0.774 11.196-1.296 1.374-0.546 4.762-5.426 4.762-11.968v-5.746c0-13.226 10.758-23.984 23.984-23.984h47.958c13.24 0 23.982 10.758 23.982 23.984v5.746c0.032 3.63 10.12 13.834 15.396 16.364 3.684-0.084 8.274-1.71 11.772-5.176l4.03-4.028c9.024-9.042 24.888-9.034 33.912-0.008l33.914 33.914c4.496 4.512 6.994 10.54 6.994 16.958s-2.498 12.444-6.994 16.956l-4.03 4.03c-2.558 2.56-2.714 16.894-0.78 22.42 0.56 1.366 5.434 4.748 11.958 4.748h5.778c13.21 0 23.984 10.758 23.984 23.982v47.974c0 13.208-10.774 23.982-23.984 23.982h-5.778c-3.622 0.032-13.832 10.118-16.364 15.394-0.532 1.342 0.594 7.15 5.184 11.742l4.03 4.028a23.944 23.944 0 0 1 6.994 16.958c0 6.434-2.498 12.458-6.994 16.958l-33.914 33.944c-9.024 9.026-24.888 9.026-33.912 0l-4.06-4.058c-0.53-0.532-3.716-2.06-11.18-2.06-5.122 0-9.71 0.78-11.208 1.31-1.344 0.532-4.748 5.402-4.748 11.96v5.746c-0.004 13.202-10.746 23.976-23.986 23.976z m-88.258-62.206c2.888 0 5.528 0.562 7.838 1.686 4.998 2.404 24.468 16.708 24.468 30.792v5.746a8.01 8.01 0 0 0 7.994 7.994h47.958a8.01 8.01 0 0 0 7.994-7.994v-5.746c0-12.336 6.65-23.982 15.458-27.074 3.842-1.312 10.306-2.188 16.488-2.188 10.462 0 18.02 2.282 22.484 6.746l4.06 4.06c2.996 2.998 8.304 2.998 11.304 0l33.912-33.946c1.498-1.498 2.31-3.498 2.31-5.652s-0.812-4.152-2.31-5.652l-4.03-4.028c-7.432-7.4-12.866-20.424-8.304-29.978 2.404-4.996 16.738-24.454 30.79-24.454h5.778a8.008 8.008 0 0 0 7.994-7.992v-47.974a8.004 8.004 0 0 0-7.994-7.994h-5.778c-12.366 0-23.982-6.66-27.074-15.49-1.78-5.192-5.34-29.034 4.59-38.972l4.03-4.03a7.918 7.918 0 0 0 2.31-5.652 7.918 7.918 0 0 0-2.31-5.652l-33.912-33.914c-3-2.974-8.308-2.99-11.304 0.008l-4.03 4.028c-8.494 8.502-21.64 12.32-29.978 8.284-4.996-2.38-24.482-16.69-24.482-30.774v-5.746a8.006 8.006 0 0 0-7.994-7.996h-47.96a8.004 8.004 0 0 0-7.994 7.996v5.746c0 12.342-6.652 23.976-15.474 27.068-3.794 1.326-10.258 2.186-16.472 2.186-10.446 0-18.018-2.272-22.5-6.754l-4.028-4.028c-2.998-2.998-8.306-2.998-11.304 0l-33.914 33.928a7.992 7.992 0 0 0 0 11.304l4.014 4.014c8.728 8.72 12.288 21.61 8.292 29.978-2.374 4.98-16.66 24.466-30.776 24.466h-5.762a8.006 8.006 0 0 0-7.994 7.994l0.016 47.974a8.008 8.008 0 0 0 7.994 7.992h5.746c12.35 0 23.998 6.652 27.074 15.49 1.874 5.402 5.496 28.884-4.574 38.972l-4.03 4.028c-1.498 1.5-2.31 3.498-2.31 5.652s0.812 4.154 2.31 5.652l33.914 33.882c2.998 2.998 8.306 2.998 11.304 0l4.028-4.03c6.136-6.116 14.63-9.956 22.14-9.956z" fill=""/>
<path d="M400.084 551.966a8 8 0 0 1-7.994-7.994c0-66.132 53.79-119.922 119.916-119.922a7.99 7.99 0 0 1 7.994 7.994 7.99 7.99 0 0 1-7.994 7.994c-57.302 0-103.926 46.624-103.926 103.934a8.002 8.002 0 0 1-7.996 7.994zM512.004 663.886a8 8 0 0 1-7.996-7.994 7.98 7.98 0 0 1 7.996-7.994c57.294 0 103.918-46.624 103.918-103.926a7.99 7.99 0 0 1 7.994-7.994 7.97 7.97 0 0 1 7.994 7.994c0 66.11-53.776 119.914-119.906 119.914z" fill=""/>
</g>
</svg>